<svg id="eUzlwAHoyu11" xmlns="http://www.w3.org/2000/svg" xmlns:xlink="http://www.w3.org/1999/xlink" viewBox="0 0 787 573" shape-rendering="geometricPrecision" text-rendering="geometricPrecision" style="background-color:transparent"><style><![CDATA[#eUzlwAHoyu13_to {animation: eUzlwAHoyu13_to__to 6000ms linear infinite normal forwards}@keyframes eUzlwAHoyu13_to__to { 0% {transform: translate(393.410004px,286.128967px)} 13.333333% {transform: translate(393.410004px,286.128971px)} 50% {transform: translate(393.589967px,286.129028px)} 100% {transform: translate(393.589967px,286.129028px)}} #eUzlwAHoyu190_tr {animation: eUzlwAHoyu190_tr__tr 6000ms linear infinite normal forwards}@keyframes eUzlwAHoyu190_tr__tr { 0% {transform: translate(537.859192px,450.487823px) rotate(10deg)} 50% {transform: translate(537.859192px,450.487823px) rotate(0deg)} 100% {transform: translate(537.859192px,450.487823px) rotate(10deg)}} #eUzlwAHoyu1105_ts {animation: eUzlwAHoyu1105_ts__ts 6000ms linear infinite normal forwards}@keyframes eUzlwAHoyu1105_ts__ts { 0% {transform: translate(723.881998px,414.92491px) scale(1.1,1)} 50% {transform: translate(723.881998px,414.92491px) scale(1.707061,1.719108)} 100% {transform: translate(723.881998px,414.92491px) scale(1.5,1.5)}} #eUzlwAHoyu1106_ts {animation: eUzlwAHoyu1106_ts__ts 6000ms linear infinite normal forwards}@keyframes eUzlwAHoyu1106_ts__ts { 0% {transform: translate(698.394395px,415.166504px) scale(1.1,1)} 50% {transform: translate(698.394395px,415.166504px) scale(2.011667,1.774993)} 100% {transform: translate(698.394395px,415.166504px) scale(1.5,1.5)}} #eUzlwAHoyu1107_ts {animation: eUzlwAHoyu1107_ts__ts 6000ms linear infinite normal forwards}@keyframes eUzlwAHoyu1107_ts__ts { 0% {transform: translate(711.149565px,414.92486px) rotate(15deg) scale(1.1,1)} 50% {transform: translate(711.149565px,414.92486px) rotate(15deg) scale(1.5,1)} 100% {transform: translate(711.149565px,414.92486px) rotate(15deg) scale(1.2,1.2)}} #eUzlwAHoyu1108_to {animation: eUzlwAHoyu1108_to__to 6000ms linear infinite normal forwards}@keyframes eUzlwAHoyu1108_to__to { 0% {transform: translate(234.744499px,266.25px)} 50% {transform: translate(234.743999px,256.252996px)} 100% {transform: translate(234.743999px,266.252996px)}} #eUzlwAHoyu1109_to {animation: eUzlwAHoyu1109_to__to 6000ms linear infinite normal forwards}@keyframes eUzlwAHoyu1109_to__to { 0% {transform: translate(234.744003px,287.941513px)} 50% {transform: translate(234.744003px,277.942509px)} 100% {transform: translate(234.744003px,288.191928px)}} #eUzlwAHoyu1110_to {animation: eUzlwAHoyu1110_to__to 6000ms linear infinite normal forwards}@keyframes eUzlwAHoyu1110_to__to { 0% {transform: translate(234.744003px,309.632996px)} 50% {transform: translate(234.744003px,299.632992px)} 100% {transform: translate(234.744003px,309.632992px)}} #eUzlwAHoyu1115_tr {animation: eUzlwAHoyu1115_tr__tr 6000ms linear infinite normal forwards}@keyframes eUzlwAHoyu1115_tr__tr { 0% {transform: translate(391.906876px,256.827774px) rotate(0deg)} 50% {transform: translate(391.906876px,256.827774px) rotate(15deg)} 100% {transform: translate(391.906876px,256.827774px) rotate(0deg)}}]]></style><g clip-path="url(#eUzlwAHoyu1118)"><g id="eUzlwAHoyu13_to" transform="translate(393.410004,286.128967)"><g transform="translate(-393.410004,-286.128967)"><path d="M458.321,100.882c14.747,0,26.701-11.954,26.701-26.7004s-11.954-26.7007-26.701-26.7007c-14.746,0-26.7,11.9543-26.7,26.7007s11.954,26.7004,26.7,26.7004Z" fill="#f2f2f2"/><path d="M608.426,55.3199c-.87-.58-1.75-1.13-2.62-1.69-25.149-16.0842-52.105-29.1508-80.31-38.93l-6.54,90.2201h-41.46v-103.39006c-2.61-.540002-5.24-1.050001-7.87-1.530001v104.920061h-49.27c-27.124,0-53.137-10.7749-72.316-29.9542s-29.954-45.1921-29.954-72.31575v-.00009c-2.64.57-5.26,1.18001-7.88,1.83001v100.44003h-40.13l-6.23-86.03c-28.985,11.1162-56.503,25.7347-81.94,43.53-.44.3-.88.61-1.31.91-2.21,1.55-4.39,3.13-6.56,4.73v344.19h118.27l-2.09-28.95-11.5-158.95h231.59l-11.5,158.95-2.09,28.95h116.96v-353.45c-1.74-1.18-3.49-2.34-5.25-3.4801ZM310.206,198.1h-33.39l-6.17-85.3h39.56v85.3Zm159.42,0h-56.08v-1.69c0-.812-.16-1.617-.471-2.367-.312-.751-.768-1.433-1.343-2.007s-1.257-1.029-2.008-1.339-1.556-.468-2.368-.467h-24.38c-.812,0-1.615.159-2.365.47-.75.31-1.432.765-2.006,1.339s-1.029,1.256-1.339,2.006c-.311.75-.47,1.553-.47,2.365v1.69h-58.71v-85.3h151.54v85.3Zm7.87,0v-85.3h40.89l-6.17,85.3h-34.72Z" fill="#3f3d56"/><path d="M-0.000031,434.291C8.68722,444.584,18.0835,454.258,28.12,463.241l730.58,1c10.036-8.983,19.433-18.657,28.12-28.95l-786.820031-1Z" fill="#3f3d56"/><path d="M495.43,341.591v85.704c.001,1.092.435,2.14,1.207,2.912.773.772,1.82,1.207,2.912,1.207h127.004c1.093,0,2.14-.435,2.912-1.207s1.207-1.82,1.208-2.912v-85.704c-.003-1.091-.438-2.137-1.21-2.908s-1.818-1.205-2.91-1.206h-127.004c-1.091.001-2.137.435-2.91,1.206-.772.771-1.206,1.817-1.209,2.908v0Z" fill="#3f3d56"/><path d="M498.409,342.658v83.58c.001.584.234,1.143.646,1.556.413.412.972.644,1.556.645h124.885c.584-.001,1.143-.233,1.556-.645.412-.413.645-.972.646-1.556v-83.58c0-.585-.232-1.145-.645-1.559-.413-.413-.973-.646-1.557-.647h-124.885c-.584.001-1.144.234-1.557.647-.413.414-.645.974-.645,1.559v0Z" fill="#6c63ff"/><g><path d="M492.774,444.01c.232.292.528.527.865.688.336.161.705.244,1.078.242h135.992c.372-.001.739-.084,1.075-.244.335-.16.631-.393.865-.682.235-.289.402-.627.489-.988.088-.362.094-.738.017-1.102l-2.111-10.027c-.087-.409-.276-.79-.548-1.107-.272-.318-.619-.562-1.01-.711-.283-.111-.584-.168-.888-.168h-131.778c-.304,0-.605.057-.888.168-.391.149-.738.393-1.01.711-.272.317-.461.698-.548,1.107l-2.111,10.027c-.075.364-.068.74.02,1.101.088.36.256.697.491.985v0Z" fill="#2f2e41"/><path d="M623.932,434.23h3.212c.27,0,.488-.218.488-.488v-1.537c0-.269-.218-.488-.488-.488h-3.212c-.27,0-.488.219-.488.488v1.537c0,.27.218.488.488.488Z" fill="#3f3d56"/><path d="M615.555,434.23h3.212c.27,0,.488-.218.488-.488v-1.537c0-.269-.218-.488-.488-.488h-3.212c-.27,0-.488.219-.488.488v1.537c0,.27.218.488.488.488Z" fill="#3f3d56"/><path d="M607.178,434.23h3.212c.27,0,.488-.218.488-.488v-1.537c0-.269-.218-.488-.488-.488h-3.212c-.27,0-.488.219-.488.488v1.537c0,.27.218.488.488.488Z" fill="#3f3d56"/><path d="M598.801,434.23h3.212c.27,0,.488-.218.488-.488v-1.537c0-.269-.218-.488-.488-.488h-3.212c-.27,0-.488.219-.488.488v1.537c0,.27.218.488.488.488Z" fill="#3f3d56"/><path d="M590.424,434.23h3.212c.27,0,.488-.218.488-.488v-1.537c0-.269-.218-.488-.488-.488h-3.212c-.27,0-.488.219-.488.488v1.537c0,.27.218.488.488.488Z" fill="#3f3d56"/><path d="M582.047,434.23h3.212c.27,0,.488-.218.488-.488v-1.537c0-.269-.218-.488-.488-.488h-3.212c-.27,0-.488.219-.488.488v1.537c0,.27.218.488.488.488Z" fill="#3f3d56"/><path d="M573.67,434.23h3.212c.27,0,.488-.218.488-.488v-1.537c0-.269-.218-.488-.488-.488h-3.212c-.27,0-.488.219-.488.488v1.537c0,.27.218.488.488.488Z" fill="#3f3d56"/><path d="M565.293,434.23h3.212c.27,0,.488-.218.488-.488v-1.537c0-.269-.218-.488-.488-.488h-3.212c-.27,0-.488.219-.488.488v1.537c0,.27.218.488.488.488Z" fill="#3f3d56"/><path d="M556.916,434.23h3.212c.27,0,.488-.218.488-.488v-1.537c0-.269-.218-.488-.488-.488h-3.212c-.269,0-.488.219-.488.488v1.537c0,.27.219.488.488.488Z" fill="#3f3d56"/><path d="M548.539,434.23h3.212c.27,0,.488-.218.488-.488v-1.537c0-.269-.218-.488-.488-.488h-3.212c-.269,0-.488.219-.488.488v1.537c0,.27.219.488.488.488Z" fill="#3f3d56"/><path d="M540.162,434.23h3.212c.27,0,.488-.218.488-.488v-1.537c0-.269-.218-.488-.488-.488h-3.212c-.27,0-.488.219-.488.488v1.537c0,.27.218.488.488.488Z" fill="#3f3d56"/><path d="M531.785,434.23h3.212c.27,0,.488-.218.488-.488v-1.537c0-.269-.218-.488-.488-.488h-3.212c-.269,0-.488.219-.488.488v1.537c0,.27.219.488.488.488Z" fill="#3f3d56"/><path d="M523.408,434.23h3.212c.27,0,.488-.218.488-.488v-1.537c0-.269-.218-.488-.488-.488h-3.212c-.269,0-.488.219-.488.488v1.537c0,.27.219.488.488.488Z" fill="#3f3d56"/><path d="M515.031,434.23h3.212c.27,0,.489-.218.489-.488v-1.537c0-.269-.219-.488-.489-.488h-3.212c-.269,0-.488.219-.488.488v1.537c0,.27.219.488.488.488Z" fill="#3f3d56"/><path d="M506.654,434.23h3.212c.27,0,.489-.218.489-.488v-1.537c0-.269-.219-.488-.489-.488h-3.212c-.269,0-.488.219-.488.488v1.537c0,.27.219.488.488.488Z" fill="#3f3d56"/><path d="M498.277,434.23h3.212c.27,0,.488-.218.488-.488v-1.537c0-.269-.218-.488-.488-.488h-3.212c-.269,0-.488.219-.488.488v1.537c0,.27.219.488.488.488Z" fill="#3f3d56"/><path d="M624.031,438.419h3.212c.27,0,.488-.219.488-.488v-1.537c0-.27-.218-.488-.488-.488h-3.212c-.27,0-.488.218-.488.488v1.537c0,.269.218.488.488.488Z" fill="#3f3d56"/><path d="M615.654,438.419h3.212c.27,0,.488-.219.488-.488v-1.537c0-.27-.218-.488-.488-.488h-3.212c-.27,0-.488.218-.488.488v1.537c0,.269.218.488.488.488Z" fill="#3f3d56"/><path d="M607.277,438.419h3.212c.27,0,.488-.219.488-.488v-1.537c0-.27-.218-.488-.488-.488h-3.212c-.27,0-.488.218-.488.488v1.537c0,.269.218.488.488.488Z" fill="#3f3d56"/><path d="M598.9,438.419h3.212c.27,0,.488-.219.488-.488v-1.537c0-.27-.218-.488-.488-.488h-3.212c-.27,0-.488.218-.488.488v1.537c0,.269.218.488.488.488Z" fill="#3f3d56"/><path d="M590.523,438.419h3.212c.27,0,.488-.219.488-.488v-1.537c0-.27-.218-.488-.488-.488h-3.212c-.27,0-.488.218-.488.488v1.537c0,.269.218.488.488.488Z" fill="#3f3d56"/><path d="M582.146,438.419h3.212c.27,0,.488-.219.488-.488v-1.537c0-.27-.218-.488-.488-.488h-3.212c-.27,0-.488.218-.488.488v1.537c0,.269.218.488.488.488Z" fill="#3f3d56"/><path d="M573.769,438.419h3.212c.27,0,.488-.219.488-.488v-1.537c0-.27-.218-.488-.488-.488h-3.212c-.27,0-.488.218-.488.488v1.537c0,.269.218.488.488.488Z" fill="#3f3d56"/><path d="M565.392,438.419h3.212c.27,0,.488-.219.488-.488v-1.537c0-.27-.218-.488-.488-.488h-3.212c-.27,0-.488.218-.488.488v1.537c0,.269.218.488.488.488Z" fill="#3f3d56"/><path d="M557.015,438.419h3.212c.27,0,.488-.219.488-.488v-1.537c0-.27-.218-.488-.488-.488h-3.212c-.27,0-.488.218-.488.488v1.537c0,.269.218.488.488.488Z" fill="#3f3d56"/><path d="M548.638,438.419h3.212c.27,0,.488-.219.488-.488v-1.537c0-.27-.218-.488-.488-.488h-3.212c-.269,0-.488.218-.488.488v1.537c0,.269.219.488.488.488Z" fill="#3f3d56"/><path d="M540.261,438.419h3.212c.27,0,.488-.219.488-.488v-1.537c0-.27-.218-.488-.488-.488h-3.212c-.27,0-.488.218-.488.488v1.537c0,.269.218.488.488.488Z" fill="#3f3d56"/><path d="M531.884,438.419h3.212c.27,0,.488-.219.488-.488v-1.537c0-.27-.218-.488-.488-.488h-3.212c-.269,0-.488.218-.488.488v1.537c0,.269.219.488.488.488Z" fill="#3f3d56"/><path d="M523.507,438.419h3.212c.27,0,.488-.219.488-.488v-1.537c0-.27-.218-.488-.488-.488h-3.212c-.269,0-.488.218-.488.488v1.537c0,.269.219.488.488.488Z" fill="#3f3d56"/><path d="M515.13,438.419h3.212c.27,0,.489-.219.489-.488v-1.537c0-.27-.219-.488-.489-.488h-3.212c-.269,0-.488.218-.488.488v1.537c0,.269.219.488.488.488Z" fill="#3f3d56"/><path d="M506.753,438.419h3.212c.27,0,.488-.219.488-.488v-1.537c0-.27-.218-.488-.488-.488h-3.212c-.269,0-.488.218-.488.488v1.537c0,.269.219.488.488.488Z" fill="#3f3d56"/><path d="M498.376,438.419h3.212c.27,0,.489-.219.489-.488v-1.537c0-.27-.219-.488-.489-.488h-3.212c-.269,0-.488.218-.488.488v1.537c0,.269.219.488.488.488Z" fill="#3f3d56"/><path d="M554.502,443.445h32.532c.269,0,.488-.219.488-.488v-1.537c0-.269-.219-.488-.488-.488h-32.532c-.27,0-.488.219-.488.488v1.537c0,.269.218.488.488.488Z" fill="#3f3d56"/></g><g><path d="M520.036,358.737h-2.844c-.862,0-1.561.699-1.561,1.561s.699,1.561,1.561,1.561h2.844c.862,0,1.561-.699,1.561-1.561s-.699-1.561-1.561-1.561Z" fill="#fff"/><path d="M552.559,358.737h-2.844c-.862,0-1.561.699-1.561,1.561s.699,1.561,1.561,1.561h2.844c.862,0,1.561-.699,1.561-1.561s-.699-1.561-1.561-1.561Z" fill="#fff"/><path d="M561.774,358.737h-2.844c-.862,0-1.561.699-1.561,1.561s.699,1.561,1.561,1.561h2.844c.862,0,1.561-.699,1.561-1.561s-.699-1.561-1.561-1.561Z" fill="#fff"/><path d="M543.712,358.477h-17.673c-.863,0-1.562.699-1.562,1.561s.699,1.561,1.562,1.561h17.673c.863,0,1.562-.699,1.562-1.561s-.699-1.561-1.562-1.561Z" fill="#fff"/><path d="M587.076,358.477h-17.673c-.863,0-1.562.699-1.562,1.561s.699,1.561,1.562,1.561h17.673c.863,0,1.562-.699,1.562-1.561s-.699-1.561-1.562-1.561Z" fill="#fff"/></g><g><path d="M528.709,365.784h-2.844c-.862,0-1.561.699-1.561,1.561s.699,1.561,1.561,1.561h2.844c.862,0,1.561-.699,1.561-1.561s-.699-1.561-1.561-1.561Z" fill="#fff"/><path d="M561.232,365.784h-2.844c-.862,0-1.561.699-1.561,1.561s.699,1.561,1.561,1.561h2.844c.862,0,1.561-.699,1.561-1.561s-.699-1.561-1.561-1.561Z" fill="#fff"/><path d="M570.446,365.784h-2.843c-.862,0-1.561.699-1.561,1.561s.699,1.561,1.561,1.561h2.843c.863,0,1.562-.699,1.562-1.561s-.699-1.561-1.562-1.561Z" fill="#fff"/><path d="M552.385,365.523h-17.674c-.862,0-1.561.699-1.561,1.562c0,.862.699,1.561,1.561,1.561h17.674c.862,0,1.561-.699,1.561-1.561c0-.863-.699-1.562-1.561-1.562Z" fill="#fff"/><path d="M595.749,365.523h-17.674c-.862,0-1.561.699-1.561,1.562c0,.862.699,1.561,1.561,1.561h17.674c.862,0,1.561-.699,1.561-1.561c0-.863-.699-1.562-1.561-1.562Z" fill="#fff"/></g><g><path d="M537.381,372.83h-2.843c-.862,0-1.561.699-1.561,1.561c0,.863.699,1.562,1.561,1.562h2.843c.863,0,1.562-.699,1.562-1.562c0-.862-.699-1.561-1.562-1.561Z" fill="#fff"/><path d="M569.904,372.83h-2.843c-.862,0-1.561.699-1.561,1.561c0,.863.699,1.562,1.561,1.562h2.843c.863,0,1.562-.699,1.562-1.562c0-.862-.699-1.561-1.562-1.561Z" fill="#fff"/><path d="M604.422,372.57h-17.674c-.862,0-1.561.699-1.561,1.561s.699,1.561,1.561,1.561h17.674c.862,0,1.561-.699,1.561-1.561s-.699-1.561-1.561-1.561Z" fill="#fff"/><path d="M579.119,372.83h-2.843c-.863,0-1.561.699-1.561,1.561c0,.863.698,1.562,1.561,1.562h2.843c.862,0,1.561-.699,1.561-1.562c0-.862-.699-1.561-1.561-1.561Z" fill="#fff"/><path d="M561.058,372.57h-17.674c-.862,0-1.561.699-1.561,1.561s.699,1.561,1.561,1.561h17.674c.862,0,1.561-.699,1.561-1.561s-.699-1.561-1.561-1.561Z" fill="#fff"/></g><g><g><path d="M546.054,379.877h-2.843c-.863,0-1.562.699-1.562,1.561s.699,1.561,1.562,1.561h2.843c.862,0,1.561-.699,1.561-1.561s-.699-1.561-1.561-1.561Z" fill="#fff"/><path d="M578.577,379.877h-2.843c-.863,0-1.562.699-1.562,1.561s.699,1.561,1.562,1.561h2.843c.862,0,1.561-.699,1.561-1.561s-.699-1.561-1.561-1.561Z" fill="#fff"/><path d="M587.792,379.877h-2.844c-.862,0-1.561.699-1.561,1.561s.699,1.561,1.561,1.561h2.844c.862,0,1.561-.699,1.561-1.561s-.699-1.561-1.561-1.561Z" fill="#fff"/><path d="M569.731,379.617h-17.674c-.862,0-1.561.699-1.561,1.561s.699,1.561,1.561,1.561h17.674c.862,0,1.561-.699,1.561-1.561s-.699-1.561-1.561-1.561Z" fill="#fff"/></g></g><g><path d="M546.054,386.758h-2.843c-.863,0-1.562.698-1.562,1.561c0,.862.699,1.561,1.562,1.561h2.843c.862,0,1.561-.699,1.561-1.561c0-.863-.699-1.561-1.561-1.561Z" fill="#fff"/><path d="M578.577,386.758h-2.843c-.863,0-1.562.698-1.562,1.561c0,.862.699,1.561,1.562,1.561h2.843c.862,0,1.561-.699,1.561-1.561c0-.863-.699-1.561-1.561-1.561Z" fill="#fff"/><path d="M587.792,386.758h-2.844c-.862,0-1.561.698-1.561,1.561c0,.862.699,1.561,1.561,1.561h2.844c.862,0,1.561-.699,1.561-1.561c0-.863-.699-1.561-1.561-1.561Z" fill="#fff"/><path d="M569.731,387.018h-17.674c-.862,0-1.561.699-1.561,1.561s.699,1.561,1.561,1.561h17.674c.862,0,1.561-.699,1.561-1.561s-.699-1.561-1.561-1.561Z" fill="#fff"/></g><g><path d="M537.381,393.804h-2.843c-.862,0-1.561.699-1.561,1.561s.699,1.561,1.561,1.561h2.843c.863,0,1.562-.699,1.562-1.561s-.699-1.561-1.562-1.561Z" fill="#fff"/><path d="M569.904,393.804h-2.843c-.862,0-1.561.699-1.561,1.561s.699,1.561,1.561,1.561h2.843c.863,0,1.562-.699,1.562-1.561s-.699-1.561-1.562-1.561Z" fill="#fff"/><path d="M579.119,393.804h-2.843c-.863,0-1.561.699-1.561,1.561s.698,1.561,1.561,1.561h2.843c.862,0,1.561-.699,1.561-1.561s-.699-1.561-1.561-1.561Z" fill="#fff"/><path d="M561.058,394.064h-17.674c-.862,0-1.561.699-1.561,1.562c0,.862.699,1.561,1.561,1.561h17.674c.862,0,1.561-.699,1.561-1.561c0-.863-.699-1.562-1.561-1.562Z" fill="#fff"/></g><g><path d="M528.709,400.851h-2.844c-.862,0-1.561.699-1.561,1.561s.699,1.561,1.561,1.561h2.844c.862,0,1.561-.699,1.561-1.561s-.699-1.561-1.561-1.561Z" fill="#fff"/><path d="M561.232,400.851h-2.844c-.862,0-1.561.699-1.561,1.561s.699,1.561,1.561,1.561h2.844c.862,0,1.561-.699,1.561-1.561s-.699-1.561-1.561-1.561Z" fill="#fff"/><path d="M570.446,400.851h-2.843c-.862,0-1.561.699-1.561,1.561s.699,1.561,1.561,1.561h2.843c.863,0,1.562-.699,1.562-1.561s-.699-1.561-1.562-1.561Z" fill="#fff"/><path d="M552.385,401.111h-17.674c-.862,0-1.561.699-1.561,1.561s.699,1.561,1.561,1.561h17.674c.862,0,1.561-.699,1.561-1.561s-.699-1.561-1.561-1.561Z" fill="#fff"/></g><g><path d="M552.559,407.898h-2.844c-.862,0-1.561.698-1.561,1.561c0,.862.699,1.561,1.561,1.561h2.844c.862,0,1.561-.699,1.561-1.561c0-.863-.699-1.561-1.561-1.561Z" fill="#fff"/><path d="M561.774,407.898h-2.844c-.862,0-1.561.698-1.561,1.561c0,.862.699,1.561,1.561,1.561h2.844c.862,0,1.561-.699,1.561-1.561c0-.863-.699-1.561-1.561-1.561Z" fill="#fff"/><path d="M587.076,408.158h-17.673c-.863,0-1.562.699-1.562,1.561s.699,1.561,1.562,1.561h17.673c.863,0,1.562-.699,1.562-1.561s-.699-1.561-1.562-1.561Z" fill="#fff"/><path d="M520.036,407.898h-2.844c-.862,0-1.561.698-1.561,1.561c0,.862.699,1.561,1.561,1.561h2.844c.862,0,1.561-.699,1.561-1.561c0-.863-.699-1.561-1.561-1.561Z" fill="#fff"/><path d="M543.712,408.158h-17.673c-.863,0-1.562.699-1.562,1.561s.699,1.561,1.562,1.561h17.673c.863,0,1.562-.699,1.562-1.561s-.699-1.561-1.562-1.561Z" fill="#fff"/></g><g id="eUzlwAHoyu190_tr" transform="translate(537.859192,450.487823) rotate(10)"><path d="M504.917,490.482L491.568,469.38l41.902-33.403l17.295-19.161c2.247-2.489,5.108-4.345,8.297-5.383c3.189-1.037,6.595-1.219,9.876-.528c3.282.691,6.324,2.231,8.824,4.467c2.5,2.235,4.369,5.088,5.421,8.272c1.559,4.719,1.224,9.858-.935,14.335-2.159,4.476-5.972,7.938-10.635,9.656L544.264,457.71l-39.347,32.772Z" transform="translate(-537.859192,-450.487823)" fill="#ffb6b6"/></g><path d="M191.69,337.481v102.56h71.85v-102.56c.001-.738-.234-1.456-.672-2.05-.437-.594-1.053-1.032-1.758-1.25-.332-.11-.68-.164-1.03-.16h-64.92c-.455-.001-.906.088-1.327.261-.42.174-.803.428-1.125.75-.322.321-.578.703-.753,1.123-.174.42-.265.871-.265,1.326v0Zm28.04,35.24c.019-2.022.835-3.955,2.271-5.378c1.437-1.423,3.377-2.221,5.399-2.221s3.962.798,5.398,2.221c1.437,1.423,2.253,3.356,2.272,5.378v11.9c-.01,2.027-.823,3.968-2.26,5.398-1.438,1.43-3.383,2.233-5.41,2.233s-3.972-.803-5.41-2.233c-1.437-1.43-2.25-3.371-2.26-5.398v-11.9Z" fill="#2f2e41"/><path d="M191.47,436.761v9.89c.002.512.205,1.003.566,1.366.362.364.852.57,1.364.574h68.43c.513-.003,1.004-.208,1.365-.572.362-.363.565-.855.565-1.368v-9.89h-72.29Z" fill="#3f3d56"/><path d="M78.66,182.961v187.26c.0019,2.386.9507,4.674,2.6381,6.362c1.6874,1.687,3.9755,2.636,6.3619,2.638h277.5c2.386-.002,4.674-.951,6.362-2.638c1.687-1.688,2.636-3.976,2.638-6.362v-187.26c-.006-2.384-.956-4.669-2.643-6.354s-3.973-2.633-6.357-2.636h-277.5c-2.3843.003-4.6702.951-6.3571,2.636s-2.6372,3.97-2.6429,6.354Z" fill="#3f3d56"/><path d="M85.17,185.291v182.62c.0022,1.275.5096,2.497,1.4112,3.399.9016.901,2.1238,1.409,3.3988,1.411h272.87c1.275-.002,2.497-.51,3.399-1.411.901-.902,1.409-2.124,1.411-3.399v-182.62c0-1.277-.507-2.501-1.408-3.405-.902-.903-2.125-1.412-3.402-1.415h-272.87c-1.2766.003-2.4999.512-3.4017,1.415-.9017.904-1.4082,2.128-1.4083,3.405Z" fill="#fff"/><path d="M135.81,447.921c.278.348.631.629,1.033.821.401.192.842.291,1.287.289h162.34c.444-.001.882-.1,1.283-.291.401-.192.754-.47,1.033-.815.28-.344.479-.747.584-1.179.104-.431.111-.881.02-1.315l-2.52-11.97c-.104-.488-.329-.943-.654-1.322s-.74-.67-1.206-.848c-.338-.133-.697-.201-1.06-.2h-157.31c-.363-.001-.722.067-1.06.2-.466.178-.881.469-1.206.848s-.55.834-.654,1.322l-2.52,11.97c-.09.434-.081.883.024,1.314.106.43.306.832.586,1.176Z" fill="#2f2e41"/><path d="M353.995,205.628h-255.3239c-.2654-.006-.5179-.116-.7035-.306-.1856-.189-.2895-.444-.2895-.71c0-.265.1039-.52.2895-.71s.4381-.299.7035-.305h255.3239c.265.006.517.115.703.305s.29.445.29.71c0,.266-.104.521-.29.71-.186.19-.438.3-.703.306v0Z" fill="#3f3d56"/><path d="M116.051,198.413c3.287,0,5.951-2.724,5.951-6.083c0-3.36-2.664-6.083-5.951-6.083-3.286,0-5.95,2.723-5.95,6.083c0,3.359,2.664,6.083,5.95,6.083Z" fill="#b4b827"/><path d="M136.607,198.413c3.287,0,5.951-2.724,5.951-6.083c0-3.36-2.664-6.083-5.951-6.083-3.286,0-5.95,2.723-5.95,6.083c0,3.359,2.664,6.083,5.95,6.083Z" fill="#21a654"/><path d="M157.163,198.413c3.287,0,5.951-2.724,5.951-6.083c0-3.36-2.664-6.083-5.951-6.083-3.286,0-5.95,2.723-5.95,6.083c0,3.359,2.664,6.083,5.95,6.083Z" fill="#9f2f12"/><path d="M341.616,187.751h-14.6c-.288.007-.563.126-.765.332-.201.207-.314.484-.314.773s.113.566.314.772c.202.207.477.326.765.333h14.6c.291-.004.568-.122.772-.329s.318-.486.318-.776c0-.291-.114-.569-.318-.776s-.481-.325-.772-.329Z" fill="#3f3d56"/><path d="M341.616,191.901h-14.6c-.288.006-.563.126-.765.332-.202.207-.316.484-.316.773s.114.566.316.773c.202.206.477.325.765.332h14.6c.291-.004.569-.122.773-.328.205-.207.319-.486.319-.777s-.114-.57-.319-.777c-.204-.207-.482-.325-.773-.328v0Z" fill="#3f3d56"/><path d="M341.616,196.051h-14.6c-.288.007-.563.126-.765.332-.201.207-.314.484-.314.773s.113.566.314.772c.202.207.477.326.765.333h14.6c.291-.004.568-.123.772-.329.204-.207.318-.486.318-.776c0-.291-.114-.569-.318-.776s-.481-.325-.772-.329v0Z" fill="#3f3d56"/><path d="M693.596,441.101c.44,1.283,1.276,2.393,2.387,3.171s2.44,1.185,3.796,1.16l26.492-.682c1.366-.026,2.686-.494,3.764-1.333c1.079-.84,1.856-2.006,2.217-3.323L736,400.006c1.33.603,2.778.9,4.238.871c1.269-.032,2.518-.313,3.678-.828s2.206-1.253,3.081-2.172c.874-.92,1.559-2.002,2.015-3.186s.674-2.446.642-3.715c-.032-1.268-.313-2.518-.828-3.677-.515-1.16-1.253-2.207-2.172-3.081s-2.002-1.559-3.186-2.015-2.446-.674-3.715-.643c-.583-.001-1.165.059-1.736.181-.62-.671-1.375-1.205-2.214-1.568-.84-.362-1.746-.544-2.66-.535l-40.75,1.052c-.338.013-.675.055-1.005.125-.894.167-1.742.523-2.486,1.044-.745.522-1.369,1.197-1.831,1.98-.461.783-.75,1.656-.846,2.56s.003,1.818.289,2.681l7.082,52.021Zm43.173-43.817l2.668-9.552c.303-1.104.31-2.268.02-3.375.13,0,.244-.062.373-.062c1.829-.038,3.599.651,4.921,1.916s2.088,3.002,2.131,4.831-.642,3.601-1.903,4.926-2.996,2.096-4.825,2.144c-1.183.037-2.353-.249-3.385-.828Z" fill="#2f2e41"/><path d="M691.388,380.815c.868,4.964,10.629,8.454,22.365,7.847c10.793-.497,19.618-4.287,21.235-8.778-.599-.177-1.221-.26-1.845-.246l-40.75,1.052c-.338.013-.675.055-1.005.125v0Z" fill="#3f3d56"/><g id="eUzlwAHoyu1105_ts" transform="translate(723.881998,414.92491) scale(1.1,1)"><path d="M715.904,419.073c.054-.014.105-.036.151-.066l5.753-3.766c.07-.045.127-.107.167-.18.039-.073.06-.155.06-.238s-.021-.165-.06-.238c-.04-.073-.097-.135-.166-.18l-5.98-3.917c-.055-.036-.116-.061-.181-.074-.065-.012-.131-.012-.196.001-.064.014-.125.039-.18.076-.054.037-.101.085-.137.14s-.061.116-.073.181-.011.131.002.196c.014.064.04.125.077.179.037.055.085.101.14.137l5.341,3.498-5.114,3.348c-.099.065-.172.163-.206.276-.033.113-.026.235.022.343.047.109.132.197.238.249.106.051.228.064.342.035v0Z" transform="translate(-718.544281,-414.746643)" fill="#6c63ff"/></g><g id="eUzlwAHoyu1106_ts" transform="translate(698.394395,415.166504) scale(1.1,1)"><path d="M706.818,419.492c.096-.024.183-.077.25-.151.066-.075.109-.167.122-.266.014-.098-.002-.199-.046-.288-.044-.09-.114-.164-.2-.213l-5.303-3.041l5.125-3.807c.053-.039.097-.088.131-.144.034-.057.056-.119.066-.184.009-.065.006-.131-.01-.195-.016-.063-.045-.123-.084-.176s-.088-.097-.144-.131c-.057-.033-.119-.056-.184-.065-.065-.01-.131-.006-.195.01-.063.016-.123.044-.176.083l-5.738,4.263c-.067.049-.12.114-.156.19-.035.075-.051.158-.046.24.005.083.031.164.074.234.044.071.105.129.177.17l5.965,3.42c.113.065.246.083.372.051v0Z" transform="translate(-703.712006,-415.166504)" fill="#6c63ff"/></g><g id="eUzlwAHoyu1107_ts" transform="translate(711.149565,414.92486) rotate(15) scale(1.1,1)"><path d="M715.332,422.373c.049-.012.095-.032.137-.058.056-.034.105-.079.144-.132s.067-.113.082-.177c.016-.064.019-.13.009-.195s-.033-.127-.067-.183l-8.156-13.408c-.069-.113-.18-.194-.309-.226-.129-.031-.265-.009-.378.06-.113.068-.194.179-.226.308-.031.129-.01.265.059.378l8.155,13.409c.056.091.139.162.238.202.099.041.209.048.312.022Z" transform="translate(-711.131897,-415.18428)" fill="#6c63ff"/></g><g id="eUzlwAHoyu1108_to" transform="translate(234.744499,266.25)"><path d="M256.84,260.827h-44.191c-1.803,0-3.264,1.462-3.264,3.264v4.318c0,1.802,1.461,3.264,3.264,3.264h44.191c1.802,0,3.264-1.462,3.264-3.264v-4.318c0-1.802-1.462-3.264-3.264-3.264Z" transform="translate(-234.744499,-266.25)" fill="#6c63ff"/></g><g id="eUzlwAHoyu1109_to" transform="translate(234.744003,287.941513)"><path d="M282.598,282.519h-95.708c-1.803,0-3.264,1.461-3.264,3.264v4.317c0,1.803,1.461,3.264,3.264,3.264h95.708c1.803,0,3.264-1.461,3.264-3.264v-4.317c0-1.803-1.461-3.264-3.264-3.264Z" transform="translate(-234.744003,-287.941513)" fill="#e6e6e6"/></g><g id="eUzlwAHoyu1110_to" transform="translate(234.744003,309.632996)"><path d="M282.598,304.21h-95.708c-1.803,0-3.264,1.461-3.264,3.264v4.317c0,1.803,1.461,3.265,3.264,3.265h95.708c1.803,0,3.264-1.462,3.264-3.265v-4.317c0-1.803-1.461-3.264-3.264-3.264Z" transform="translate(-234.744003,-309.632996)" fill="#e6e6e6"/></g><path d="M290.711,376.846l.217.684.011.023l6.526,19.838l7.506,22.861l14.123,42.961.136,6.674v.023l1.05,53.684-2.909,7.278l3.274,11.933c0,0-1.506-18.037-9.583-7.679-4.574,5.886-9.924,11.909-14.316,17.556c6.4,2.59,12.902,4.932,19.507,7.027c1.426.457,2.863.89,4.301,1.324.308.091.616.182.924.273c21.894,6.475,44.53,10.114,67.351,10.826c1.186.035,2.35.057,3.479.08.399.012.787.023,1.175.023c1.278.011,2.544.023,3.821.023c2.579,0,5.145-.038,7.701-.114c18.913-.533,37.716-3.076,56.091-7.586-.125-7.586-.468-16.45-.958-25.919-.228-4.643-5.35-9.673-5.658-14.533-.217-3.65,4.38-7.084,4.141-10.792-1.552-22.826-3.491-14.064-4.928-30.228-.149-1.586-.286-3.103-.411-4.552-.924-10.381-1.563-16.872-1.563-16.872l6.137-38.683l9.64-60.735-.742-1.221-.832-.41-50.844-25.166-2.761-7.072c-.804-2.038-2.2-3.788-4.007-5.026-1.808-1.238-3.944-1.908-6.134-1.922l-33.493-.136c-1.739-.008-3.454.398-5.003,1.186s-2.889,1.934-3.907,3.342l-9.069,12.56-59.993,38.467Z" fill="#3f3d56"/><path d="M326.817,453.654l-7.587,16.233-5.179,11.088-8.909,46.646-4.46,4.734-3.822-16.759-39.998,8.881c-1.312-7.29-.351.246-1.161-7.75.228-.228.468-.457.707-.685.639-.593,1.175-1.152,1.164-1.688-.456-27.584.913-74.526,12.343-102.966c1.79-4.643,4.151-9.046,7.027-13.107.228-.308.445-.616.662-.924c5.27-7.381,8.601-14.648,13.324-19.815v-.012c.029-.023.056-.05.08-.08.017-.008.032-.02.045-.034l32.444-17.203l1.392,39.106.992,28.108.936,26.227Z" fill="#3f3d56"/><path d="M443.801,458.264l9.476,20.275l3.308,7.061l8.907,46.642l4.445,4.723l3.831-16.756l1.8-.369l32.458-6.722l9.461,30.046c2.132-3.553,2.972-7.733,2.378-11.834-.594-4.1-2.587-7.87-5.64-10.672-.646-.584-1.184-1.153-1.169-1.692.539-32.443-1.446-91.683-19.367-116.066-5.692-7.737-9.107-15.444-14.076-20.828-.015-.016-.015-.031-.03-.031l-12.092-19.798-.738-1.216-.831-.415-22.121,97.652Z" fill="#3f3d56"/><path d="M386.397,311.759c24.608,0,44.558-19.95,44.558-44.558c0-24.609-19.95-44.559-44.558-44.559-24.609,0-44.559,19.95-44.559,44.559c0,24.608,19.95,44.558,44.559,44.558Z" fill="#ffb6b6"/><g id="eUzlwAHoyu1115_tr" transform="translate(391.906876,256.827774) rotate(0)"><path d="M446.622,236.077c-.345-.369-.761-.665-1.224-.869-.462-.205-.96-.314-1.466-.321l.67-1.86c.219-.586.278-1.22.171-1.836-.106-.616-.375-1.193-.778-1.671s-.926-.841-1.515-1.05c-.589-.21-1.223-.259-1.838-.143l-2.44.47.23-1.63c.088-.607.017-1.227-.207-1.798s-.592-1.074-1.07-1.46c-.477-.385-1.046-.64-1.652-.738-.605-.099-1.226-.038-1.801.176-.523.206-1.085.292-1.646.252-.56-.04-1.105-.205-1.594-.482-.49-.269-.916-.642-1.248-1.093s-.561-.969-.672-1.517l-.85-4.1-.09-.22c-4.14-6.9-12.1-11.92-21.84-13.76-8.67-1.65-17.56-.81-26.13-.02-3.4.32-7.24.68-10.44,2.64-2.72,1.68-5.02,5.04-4.55,8.43-8.45-2.59-17.51,2.58-22,9.1-5.32,7.76-6.19,17.48-6.33,25.08-.38,17.98,3.33,32.69,11,43.73.56.8.7,2.47,1.81,3.03l-.23-.37c1.24.62,2.5,1.62,2.03,2.69-1.35,3.08,7.62,9.89,13.94,12.14c11.53,4.11,26.86,3.76,37.64,2.28l.38-2.55c3.89-.53,6.63-1.54,7.4-3.12c1.36-1.16,2.52-2.2,3.53-3.16l.01-.01c.02-.02.06-.05.08-.07c4.87-4.67,6-7.33,6.51-11.38.49-3.97-.38-8-1.27-11.63c18.74,2.9-7.38-19.96,10.08-24.38.2-.062.404-.112.61-.15.51-.12,1.02-.24,1.51-.38c2.362-.641,4.624-1.607,6.72-2.87c4.88-2.97,6.49-6.91,9.01-11.35.364-.632.516-1.364.435-2.089s-.391-1.405-.885-1.941v0Z" transform="translate(-391.906876,-256.827774)" fill="#2f2e41"/></g><path d="M543.992,461.437c-.01,1.75-.03,4.2-.11,7.23-.01.42-.02.85-.03,1.29-.13,5.57-.26,10.24-.47,15.43-.01.36-.02.71-.04,1.07-.28,7.24-.72,15.67-1.48,29.02-1.41,24.66-3.87,3.39-6.34,12.04-.12.43-.25.94-.37,1.54-.374,2.177-1.005,4.302-1.88,6.33-1.31.78-2.66,1.53-3.99,2.28-3.79,2.11-7.64,4.14-11.52,6.07-2.18,1.08-4.37,2.14-6.57,3.16-.35.16-.69.32-1.03.47-11.266,5.211-22.876,9.641-34.75,13.26-2.32.7-4.63,1.38-6.97,2.01-2.44.68-4.88,1.32-7.35,1.92-18.374,4.511-37.177,7.055-56.09,7.59-2.55.08-5.12.11-7.7.11-1.28,0-2.54-.01-3.82-.02-.39,0-.78-.01-1.17-.02-1.13-.03-2.3-.05-3.48-.08-22.821-.712-45.456-4.352-67.35-10.83l-.93-.27c-1.44-.44-2.87-.87-4.3-1.33-6.6-2.09-13.103-4.43-19.51-7.02-4.89-1.97-9.723-4.084-14.5-6.34-.043-.012-.084-.032-.12-.06-1-.46-2.01-.94-3.01-1.43-.13-.07-.27-.14-.41-.21-3.73-1.82-7.42-3.727-11.07-5.72-3.07-7.05-7.39-8.4-10.07-14.6-.78-1.842-1.343-3.768-1.68-5.74c0-.02-.01-.04-.01-.07.28,3.72-1.19-6.6-.01-.04-.01-.12-.02-.25-.03-.4-.03-.36-.07-.8-.13-1.35-3.43-33.49-3.21-71.79-4.7-103.35-.1-2.04-.203-3.994-.31-5.86-.03-.62-.07-1.23-.11-1.83.07-.18.15-.37.24-.55.019-.052.043-.102.07-.15.03-.062.063-.122.1-.18.02-.03.05-.07.07-.1.015-.035.032-.068.05-.1.09-.14.19-.29.3-.43.05-.06.09-.11.14-.16.035-.051.075-.098.12-.14.031-.048.068-.092.11-.13.04-.04.08-.09.13-.14.022-.032.049-.059.08-.08.079-.091.166-.175.26-.25.357-.328.738-.629,1.14-.9.14-.09.29-.18.43-.28c1.008-.603,2.069-1.112,3.17-1.52.38-.14.76-.27,1.17-.41.15-.04.29-.09.44-.14.22-.07.44-.14.67-.19c1.14-.34,2.37-.63,3.7-.9.16-.03.33-.06.5-.1.24-.05.49-.09.74-.13.34-.06.69-.12,1.04-.18c2.97-.47,6.34-.82,10.06-1.05.35-.02.7-.04,1.05-.06.41-.02.82-.04,1.24-.06.35-.02.71-.03,1.07-.04.35-.02.71-.03,1.08-.04c1.01-.03,2.05-.06,3.11-.08c3.02-.06,6.2-.04,9.54.03c1.55.04,3.13.08,4.75.15.11,0,.21.01.31.01c1.41.05,2.83.11,4.29.19c1.02.05,2.05.1,3.08.16.97.06,1.95.12,2.94.19.77.04,1.54.1,2.32.15.66.05,1.32.1,1.98.14l.9.06c.49.04.98.07,1.48.12c1.1.09,2.2.18,3.32.27c1.11.1,2.24.2,3.37.3s2.27.21,3.41.32c.12.01.23.02.34.03c1.04.11,2.08.21,3.13.32.24.02.49.04.73.07c1.001.1,2.022.218,3.032.325.31.034.619.066.93.1.791.087,1.571.161,2.368.255c1.05.12,2.12.23,3.16.37.81.09,1.62.18,2.43.28c1.27.15,2.56.31,3.85.48.49.06.98.12,1.47.19c3.68.46,7.4.97,11.18,1.5c5.73.81,11.55,1.69,17.41,2.64c5.87.95,11.774,1.953,17.71,3.01c1.5.27,3,.54,4.51.82.68.13,1.36.26,2.04.39c1.16.21,2.32.43,3.48.65s2.32.44,3.48.67c1.38.27,2.77.54,4.15.81c9.09,1.8,18.13,3.72,26.95,5.73c1.45.33,2.9.67,4.34,1c2.88.67,5.734,1.35,8.56,2.04.78.18,1.55.37,2.32.56c1.92.48,3.84.96,5.73,1.45l.33.09c1.39.34,2.75.69,4.11,1.05c3.21.84,6.367,1.69,9.47,2.55c2.06.57,4.097,1.146,6.11,1.73c3.01.87,5.96,1.75,8.83,2.64.71.22,1.42.44,2.12.65c2.1.65,4.17,1.31,6.18,1.97c1.6.52,3.16,1.05,4.7,1.58s3.05,1.06,4.53,1.59c.95.34,1.89.7,2.83,1.04c1.35.5,2.68,1,3.98,1.5.4.15.79.31,1.18.46.25.11.49.2.73.3.47.19.95.37,1.41.56.47.18.93.37,1.39.57.45.18.91.37,1.35.56.45.18.89.37,1.33.57.37.15.73.31,1.08.47.71.31,1.42.62,2.11.94.34.16.68.31,1.02.47l.78.36c.11.06.22.11.33.16.25.12.51.25.76.37.58.27,1.15.56,1.71.83.75.38,1.48.76,2.18,1.13.71.38,1.4.76,2.06,1.13.11.06.21.12.32.18.15.08.3.17.45.25.51.29,1,.59,1.49.88.96.59,1.87,1.17,2.72,1.75.19.13.37.26.56.38.63.45,1.23.89,1.79,1.34c0,.01,0,.01.01.01.19.14.37.29.55.43.15.14.31.26.46.4.52.45,1,.88,1.44,1.32.148.135.288.279.42.43.058.048.112.101.16.16.2.2.38.4.55.6.027.027.05.057.07.09.24.28.46.56.67.84.1.14.21.28.3.42.12.17.24.35.34.52.09.14.17.29.25.43.212.36.393.738.54,1.13.113.265.203.539.27.82.076.265.133.536.17.81v0Z" fill="#2f2e41"/><path d="M543.992,461.437c-.01,1.75-.03,4.2-.11,7.23-.01.42-.03.85-.04,1.29-.1,4.25-.25,9.5-.46,15.43-.01.36-.02.71-.04,1.07-.28,7.24-.72,15.67-1.48,29.02-1.41,24.66-3.87,3.39-6.34,12.04-6.86-4.22-14.38-8.64-22.42-13.18-1.45-.82-2.913-1.644-4.39-2.47-16.08-8.97-34.04-18.37-52.79-27.68-.74-.37-1.49-.74-2.23-1.1-42.95-21.23-89.83-41.88-127.81-55.66-7.33-2.66-14.33-5.06-20.91-7.17-13.86-4.43-25.84-7.53-35.06-8.87-9.6-1.4-16.23-.9-18.91,1.99-.1-2.04-.203-3.994-.31-5.86-.04-.62-.08-1.23-.12-1.83.062-.165.142-.322.22-.48.011-.024.019-.047.03-.07.019-.052.043-.102.07-.15.03-.062.063-.122.1-.18.033-.071.073-.138.12-.2.09-.14.19-.29.3-.43.081-.105.168-.205.26-.3.031-.048.068-.092.11-.13.04-.04.08-.09.13-.14.022-.032.049-.059.08-.08.079-.091.166-.175.26-.25.357-.329.738-.629,1.14-.9.14-.09.29-.18.43-.28c1.008-.603,2.069-1.112,3.17-1.52.38-.14.76-.27,1.17-.41.15-.04.29-.09.44-.14.22-.07.44-.14.67-.19c1.14-.34,2.37-.63,3.7-.9.4-.08.82-.16,1.24-.23.34-.06.69-.12,1.04-.18c2.97-.47,6.34-.82,10.06-1.05.35-.02.7-.04,1.05-.06.41-.02.82-.04,1.24-.06.35-.02.71-.03,1.07-.04.35-.02.71-.03,1.08-.04c1.01-.03,2.05-.06,3.11-.08c3.02-.05,6.2-.03,9.54.04c1.55.03,3.13.08,4.75.15.1,0,.21.01.31.01c1.41.04,2.84.11,4.29.18c1.02.05,2.05.1,3.08.16.97.06,1.95.12,2.94.19.77.04,1.54.1,2.32.15.66.05,1.32.1,1.98.14.79.06,1.58.12,2.38.18c1.1.09,2.2.18,3.32.27c1.11.1,2.24.2,3.37.3s2.27.21,3.41.32c.12.01.23.02.34.03c1.04.11,2.08.21,3.13.32c5.82.59,11.81,1.28,17.97,2.07c3.68.47,7.407.973,11.18,1.51c5.73.81,11.55,1.69,17.41,2.63c5.87.95,11.774,1.953,17.71,3.01c1.5.27,3,.54,4.51.82c1.84.34,3.68.686,5.52,1.04c1.16.22,2.32.44,3.48.67c1.38.27,2.77.54,4.15.81c9.09,1.8,18.13,3.72,26.95,5.73c1.45.33,2.9.67,4.34,1c2.88.67,5.734,1.35,8.56,2.04.78.19,1.55.38,2.32.57c1.93.48,3.84.96,5.73,1.44v.01c.11.02.22.05.33.08c1.38.35,2.75.7,4.11,1.06c3.21.84,6.367,1.686,9.47,2.54c2.06.58,4.1,1.15,6.11,1.73c3.01.88,5.96,1.76,8.83,2.64.71.22,1.42.44,2.12.65c2.1.66,4.16,1.316,6.18,1.97c1.6.52,3.16,1.05,4.7,1.58s3.05,1.06,4.53,1.59c.96.34,1.9.69,2.83,1.03c1.36.5,2.68,1,3.98,1.51.4.15.79.31,1.18.46.73.28,1.44.57,2.14.86.47.18.93.37,1.39.57.45.18.91.37,1.35.56.45.18.89.37,1.33.57.37.15.73.31,1.08.47.71.31,1.42.62,2.11.94.34.16.68.31,1.02.47l.78.36c.11.06.22.11.33.16.85.4,1.67.8,2.47,1.2.75.38,1.48.76,2.18,1.13.83.44,1.62.87,2.38,1.31.15.08.3.17.45.25.51.29,1,.59,1.49.88.96.59,1.87,1.17,2.72,1.75.84.58,1.62,1.15,2.35,1.72c0,.01,0,.01.01.01.35.28.69.56,1.01.83.52.45,1,.88,1.44,1.32.148.135.288.279.42.43.058.048.112.101.16.16.21.23.42.46.62.69.24.28.46.56.67.84.1.14.21.28.3.42.12.17.24.35.34.52.09.14.17.29.25.43.212.36.393.738.54,1.13.11.266.2.54.27.82.076.265.133.536.17.81v0Z" opacity="0.2"/></g></g><clipPath id="eUzlwAHoyu1118"><rect width="786.82" height="572.258" rx="0" ry="0" fill="#fff"/></clipPath></g></svg>